<?xml version="1.0" encoding="utf-8"?>
<svg version="1.1" id="Layer_1" xmlns="http://www.w3.org/2000/svg" xmlns:xlink="http://www.w3.org/1999/xlink"
     width="80px" height="80px" viewBox="0 0 54.9 76.7" xml:space="preserve">
    <path fill="#4A0D66" d="M54.9,20.8V0H0v21c0,39.5,27.4,55.7,27.4,55.7l0,0c0,0,27.6-15.2,27.4-55.8V20.8z"/>
    <path fill="#FFFFFF" d="M39.6,17.4c-3.9-5.1-3.2-7.4-3.2-7.4s-2.1,3.7-3.1,6.8c-1.3,3.7,1.2,7.6,1.2,7.6l4.3,6.2
        c1.6,2.6-2.4,8.6-2.4,8.6l-8.8-20.5C23.9,10.2,26.1,7,26.1,7c-7.3,7.7-6.3,12.5-5.2,15.9c0,0,1.6,4,3.7,9.1l-2.8,7.4L16,25.9
        c-2-5.1,0.1-8.6,0.1-8.6c-9.2,8-5.8,16.2-4,20.4c3.9,9.5,6.5,15.5,7.1,17.1c0.1,0.4,0.2,0.6,0.2,0.6h1.7c0.1,0,0.3-0.1,0.4-0.2
        c0.1-0.1,0.7-2,0.7-2l4.6-15.6c3,7.5,6.8,16.7,7,17.3c0.1,0.3,0.2,0.5,0.2,0.5c0,0,1.7,0,1.7,0c0.1,0,0.2-0.1,0.3-0.2
        c0.1-0.2,0.7-2,0.7-2l6.8-19.5C46.9,25.1,42.7,21.5,39.6,17.4z"/>
</svg>
